<svg width="23" height="25" viewBox="0 0 23 25" fill="none" xmlns="http://www.w3.org/2000/svg">
<path fill-rule="evenodd" clip-rule="evenodd" d="M11.173 24.1663C9.53567 24.1663 7.93946 24.1482 6.36017 24.1156C4.33984 24.0757 2.9418 22.7659 2.71342 20.6972C2.3328 17.2655 1.6815 9.17694 1.67546 9.09599C1.63438 8.59694 2.00655 8.15953 2.50559 8.11965C2.99738 8.10636 3.44205 8.45194 3.48192 8.94978C3.48796 9.03194 4.13805 17.0927 4.51505 20.4978C4.64434 21.6735 5.27871 22.2801 6.39763 22.3031C9.41846 22.3671 12.5009 22.3707 15.8238 22.3103C17.0128 22.2874 17.6557 21.6929 17.7886 20.4894C18.1632 17.1133 18.8157 9.03194 18.8229 8.94978C18.8628 8.45194 19.3038 8.10394 19.798 8.11965C20.2971 8.16073 20.6693 8.59694 20.6294 9.09599C20.6221 9.17815 19.9672 17.2873 19.5902 20.6887C19.3558 22.7997 17.9614 24.0842 15.8565 24.1228C14.2458 24.1506 12.6918 24.1663 11.173 24.1663" fill="white"/>
<path fill-rule="evenodd" clip-rule="evenodd" d="M21.3972 6.02881H0.90625C0.406 6.02881 0 5.62281 0 5.12256C0 4.62231 0.406 4.21631 0.90625 4.21631H21.3972C21.8974 4.21631 22.3034 4.62231 22.3034 5.12256C22.3034 5.62281 21.8974 6.02881 21.3972 6.02881" fill="white"/>
<path fill-rule="evenodd" clip-rule="evenodd" d="M17.4488 6.02837C16.0737 6.02837 14.8799 5.04842 14.6092 3.69992L14.3156 2.23058C14.254 2.00704 13.999 1.8125 13.709 1.8125H8.59416C8.30416 1.8125 8.0492 2.00704 7.9755 2.28617L7.69395 3.69992C7.4245 5.04842 6.22945 6.02837 4.85437 6.02837C4.35412 6.02837 3.94812 5.62237 3.94812 5.12212C3.94812 4.62187 4.35412 4.21587 4.85437 4.21587C5.36912 4.21587 5.8162 3.84854 5.9177 3.34346L6.21133 1.87412C6.50979 0.747958 7.48491 0 8.59416 0H13.709C14.8183 0 15.7934 0.747958 16.0798 1.81975L16.3867 3.34346C16.487 3.84854 16.9341 4.21587 17.4488 4.21587C17.9491 4.21587 18.3551 4.62187 18.3551 5.12212C18.3551 5.62237 17.9491 6.02837 17.4488 6.02837" fill="white"/>
</svg>
