<svg width="24" height="24" viewBox="0 0 24 24" fill="none" xmlns="http://www.w3.org/2000/svg">
<path fill-rule="evenodd" clip-rule="evenodd" d="M16.5771 22.3691H7.75312C4.31212 22.3691 2.00012 19.9541 2.00012 16.3601V8.04611C2.00012 4.45211 4.31212 2.03711 7.75312 2.03711H11.4921C11.9061 2.03711 12.2421 2.37311 12.2421 2.78711C12.2421 3.20111 11.9061 3.53711 11.4921 3.53711H7.75312C5.16912 3.53711 3.50012 5.30711 3.50012 8.04611V16.3601C3.50012 19.0991 5.16912 20.8691 7.75312 20.8691H16.5771C19.1611 20.8691 20.8311 19.0991 20.8311 16.3601V12.3321C20.8311 11.9181 21.1671 11.5821 21.5811 11.5821C21.9951 11.5821 22.3311 11.9181 22.3311 12.3321V16.3601C22.3311 19.9541 20.0181 22.3691 16.5771 22.3691Z" fill="white"/>
<path fill-rule="evenodd" clip-rule="evenodd" d="M8.86774 15.4285H11.8447C12.2247 15.4285 12.5807 15.2815 12.8497 15.0125L20.3587 7.50349C20.6667 7.19549 20.8367 6.78549 20.8367 6.34949C20.8367 5.91249 20.6667 5.50149 20.3587 5.19349L19.1417 3.97649C18.5047 3.34149 17.4687 3.34149 16.8307 3.97649L9.35774 11.4495C9.09874 11.7085 8.95174 12.0525 8.94274 12.4175L8.86774 15.4285ZM11.8447 16.9285H8.09874C7.89674 16.9285 7.70274 16.8465 7.56174 16.7015C7.42074 16.5575 7.34374 16.3625 7.34874 16.1595L7.44274 12.3805C7.46174 11.6285 7.76474 10.9215 8.29674 10.3885H8.29774L15.7707 2.91549C16.9927 1.69549 18.9797 1.69549 20.2017 2.91549L21.4187 4.13249C22.0117 4.72449 22.3377 5.51149 22.3367 6.34949C22.3367 7.18749 22.0107 7.97349 21.4187 8.56449L13.9097 16.0735C13.3587 16.6245 12.6247 16.9285 11.8447 16.9285Z" fill="white"/>
<path fill-rule="evenodd" clip-rule="evenodd" d="M19.731 9.91685C19.539 9.91685 19.347 9.84385 19.201 9.69685L14.635 5.13085C14.342 4.83785 14.342 4.36285 14.635 4.06985C14.928 3.77685 15.402 3.77685 15.695 4.06985L20.261 8.63685C20.554 8.92985 20.554 9.40385 20.261 9.69685C20.115 9.84385 19.923 9.91685 19.731 9.91685Z" fill="white"/>
</svg>
