<svg width="1059" height="867" viewBox="0 0 1059 867" fill="none" xmlns="http://www.w3.org/2000/svg">
<g id="No Results">
<g id="circle">
<path id="Stroke 1" d="M33.1963 397.382V406.382" stroke="#D2D8DF" stroke-width="2.921" stroke-linecap="round"/>
<g id="Group 8">
<path id="Stroke 2" d="M12.9844 402.258L20.3387 409.828" stroke="#D2D8DF" stroke-width="2.921" stroke-linecap="round"/>
<path id="Stroke 4" d="M4.38281 422.411H14.7817" stroke="#D2D8DF" stroke-width="2.921" stroke-linecap="round"/>
<path id="Stroke 6" d="M12.1436 442.923L19.4978 435.352" stroke="#D2D8DF" stroke-width="2.921" stroke-linecap="round"/>
</g>
<path id="Stroke 9" d="M33.1963 445.382V436.382" stroke="#D2D8DF" stroke-width="2.921" stroke-linecap="round"/>
<path id="Stroke 10" d="M48.1963 439.382L42.1963 433.382" stroke="#D2D8DF" stroke-width="2.921" stroke-linecap="round"/>
<path id="Stroke 11" d="M60.1963 424.382H51.1963" stroke="#D2D8DF" stroke-width="2.921" stroke-linecap="round"/>
<path id="Stroke 12" d="M54.1963 403.382L48.1963 409.382" stroke="#D2D8DF" stroke-width="2.921" stroke-linecap="round"/>
<path id="Stroke 13" d="M516.196 4.38153V10.3815" stroke="#D2D8DF" stroke-width="2.921" stroke-linecap="round"/>
<path id="Stroke 15" d="M498.196 22.3815H504.196" stroke="#D2D8DF" stroke-width="2.921" stroke-linecap="round"/>
<path id="Stroke 16" d="M516.196 40.3815V34.3815" stroke="#D2D8DF" stroke-width="2.921" stroke-linecap="round"/>
<path id="Stroke 17" d="M531.196 22.3815H525.196" stroke="#D2D8DF" stroke-width="2.921" stroke-linecap="round"/>
<path id="Stroke 18" d="M168.196 256.382V265.382" stroke="#D2D8DF" stroke-width="2.921" stroke-linecap="round"/>
<path id="Stroke 19" d="M141.196 283.382H150.196" stroke="#D2D8DF" stroke-width="2.921" stroke-linecap="round"/>
<path id="Stroke 20" d="M168.196 307.382V298.382" stroke="#D2D8DF" stroke-width="2.921" stroke-linecap="round"/>
<path id="Stroke 21" d="M192.196 283.382H183.196" stroke="#D2D8DF" stroke-width="2.921" stroke-linecap="round"/>
<g id="Group 42">
<path id="Stroke 22" d="M813.961 583.497C821.13 583.497 826.944 589.313 826.944 596.485C826.944 603.659 821.13 609.472 813.961 609.472C806.791 609.472 800.977 603.659 800.977 596.485" stroke="#D2D8DF" stroke-width="2.921" stroke-linecap="round"/>
<path id="Fill 26" fill-rule="evenodd" clip-rule="evenodd" d="M873.384 465.671C881.093 463.266 892.911 453.838 895.646 443.693C898.127 452.661 908.526 463.266 917.908 464.069C907.346 467.809 897.248 478.918 895.646 487.646C894.556 478.75 880.589 466.968 873.384 465.671Z" fill="#EBECEE"/>
<path id="Fill 28" fill-rule="evenodd" clip-rule="evenodd" d="M82.0166 579.497C85.8726 578.295 91.7788 573.582 93.1464 568.509C94.3868 572.991 99.5849 578.295 104.276 578.697C98.9966 580.564 93.9487 586.121 93.1464 590.485C92.6014 586.037 85.6179 580.144 82.0166 579.497Z" fill="#EBECEE"/>
<path id="Fill 30" fill-rule="evenodd" clip-rule="evenodd" d="M153.574 162.173C153.574 167.737 149.066 172.243 143.506 172.243C137.944 172.243 133.438 167.737 133.438 162.173C133.438 156.612 137.944 152.102 143.506 152.102C149.066 152.102 153.574 156.612 153.574 162.173Z" fill="#D1D8DF"/>
<path id="Fill 32" fill-rule="evenodd" clip-rule="evenodd" d="M825.856 189.213C825.856 198.509 818.32 206.045 809.029 206.045C799.733 206.045 792.199 198.509 792.199 189.213C792.199 179.917 799.733 172.382 809.029 172.382C818.32 172.382 825.856 179.917 825.856 189.213Z" fill="#EBECEE"/>
<path id="Fill 34" fill-rule="evenodd" clip-rule="evenodd" d="M1058.94 143.61C1058.94 150.985 1052.97 156.962 1045.6 156.962C1038.22 156.962 1032.25 150.985 1032.25 143.61C1032.25 136.235 1038.22 130.258 1045.6 130.258C1052.97 130.258 1058.94 136.235 1058.94 143.61Z" fill="#EBECEE"/>
<path id="Stroke 36" fill-rule="evenodd" clip-rule="evenodd" d="M341.73 767.184C341.73 771.833 337.963 775.601 333.315 775.601C328.669 775.601 324.902 771.833 324.902 767.184C324.902 762.535 328.669 758.767 333.315 758.767C337.963 758.767 341.73 762.535 341.73 767.184Z" stroke="#D2D8DF" stroke-width="2.921" stroke-linecap="round"/>
<path id="Stroke 38" fill-rule="evenodd" clip-rule="evenodd" d="M336.723 97.4767C336.723 103.041 332.216 107.547 326.656 107.547C321.096 107.547 316.588 103.041 316.588 97.4767C316.588 91.9155 321.096 87.4063 326.656 87.4063C332.216 87.4063 336.723 91.9155 336.723 97.4767Z" stroke="#D2D8DF" stroke-width="2.921" stroke-linecap="round"/>
<path id="Stroke 40" fill-rule="evenodd" clip-rule="evenodd" d="M593.535 860.389C587.101 862.838 579.901 859.605 577.454 853.172C575.006 846.737 578.236 839.533 584.672 837.087C591.103 834.639 598.303 837.869 600.75 844.304C603.2 850.739 599.968 857.941 593.535 860.389Z" stroke="#D2D8DF" stroke-width="2.921" stroke-linecap="round"/>
</g>
</g>
<g id="search">
<g id="documents">
<path id="Fill 1" fill-rule="evenodd" clip-rule="evenodd" d="M589.7 622.382H343.686C326.37 622.382 312.196 608.166 312.196 590.792V239.964C312.196 222.59 326.37 208.382 343.686 208.382H589.7C607.023 208.382 621.196 222.59 621.196 239.964V590.792C621.196 608.166 607.023 622.382 589.7 622.382Z" fill="#E0E2EE"/>
<path id="Fill 3" fill-rule="evenodd" clip-rule="evenodd" d="M568.7 637.382H322.686C305.37 637.382 291.196 623.166 291.196 605.792V254.964C291.196 237.59 305.37 223.382 322.686 223.382H568.7C586.023 223.382 600.196 237.59 600.196 254.964V605.792C600.196 623.166 586.023 637.382 568.7 637.382Z" fill="#E8EBF2"/>
<path id="Fill 5" fill-rule="evenodd" clip-rule="evenodd" d="M548.273 649.223H301.751C284.399 649.223 270.196 635.066 270.196 617.764V268.389C270.196 251.087 284.399 236.937 301.751 236.937H548.273C565.632 236.937 579.835 251.087 579.835 268.389V617.764C579.835 635.066 565.632 649.223 548.273 649.223Z" fill="#D8DBEA"/>
<path id="Fill 8" fill-rule="evenodd" clip-rule="evenodd" d="M548.273 649.223H301.751C284.399 649.223 270.196 635.066 270.196 617.764V268.389C270.196 251.087 284.399 236.937 301.751 236.937H548.273C565.632 236.937 579.835 251.087 579.835 268.389V617.764C579.835 635.066 565.632 649.223 548.273 649.223Z" fill="#F1F2F7"/>
<path id="Fill 11" fill-rule="evenodd" clip-rule="evenodd" d="M512.74 343.382H330.653C325.453 343.382 321.196 339.332 321.196 334.385C321.196 329.431 325.453 325.382 330.653 325.382H512.74C517.94 325.382 522.196 329.431 522.196 334.385C522.196 339.332 517.94 343.382 512.74 343.382Z" fill="#E0E2EE"/>
<path id="Fill 13" fill-rule="evenodd" clip-rule="evenodd" d="M512.74 397.382H330.653C325.453 397.382 321.196 393.332 321.196 388.385C321.196 383.431 325.453 379.382 330.653 379.382H512.74C517.94 379.382 522.196 383.431 522.196 388.385C522.196 393.332 517.94 397.382 512.74 397.382Z" fill="#E0E2EE"/>
<path id="Fill 15" fill-rule="evenodd" clip-rule="evenodd" d="M512.74 451.382H330.653C325.453 451.382 321.196 447.332 321.196 442.385C321.196 437.438 325.453 433.382 330.653 433.382H512.74C517.94 433.382 522.196 437.438 522.196 442.385C522.196 447.332 517.94 451.382 512.74 451.382Z" fill="#E0E2EE"/>
<path id="Fill 17" fill-rule="evenodd" clip-rule="evenodd" d="M512.74 505.382H330.653C325.453 505.382 321.196 501.332 321.196 496.385C321.196 491.431 325.453 487.382 330.653 487.382H512.74C517.94 487.382 522.196 491.431 522.196 496.385C522.196 501.332 517.94 505.382 512.74 505.382Z" fill="#E0E2EE"/>
<path id="Fill 19" fill-rule="evenodd" clip-rule="evenodd" d="M425.699 559.382H330.693C325.471 559.382 321.196 555.332 321.196 550.385C321.196 545.431 325.471 541.382 330.693 541.382H425.699C430.922 541.382 435.196 545.431 435.196 550.385C435.196 555.332 430.922 559.382 425.699 559.382Z" fill="#E0E2EE"/>
</g>
<g id="search_2">
<path id="Fill 21" fill-rule="evenodd" clip-rule="evenodd" d="M617.461 489.592C581.051 525.996 524.684 530.103 483.761 501.996C478.532 498.34 473.554 494.233 468.912 489.592C466.522 487.21 464.27 484.752 462.148 482.164C457.903 476.997 454.184 471.485 451.138 465.791C445.771 456.173 442.122 445.967 440.129 435.417C433.7 402.334 443.313 366.724 468.912 341.137C494.572 315.473 530.188 305.924 563.277 312.29C573.821 314.343 584.036 317.992 593.656 323.297C599.359 326.412 604.795 330.129 609.971 334.373C612.552 336.488 615.01 338.747 617.392 341.137C622.042 345.778 626.211 350.747 629.799 355.984C657.918 396.891 653.803 453.257 617.461 489.592Z" fill="white" fill-opacity="0.1"/>
<path id="Fill 23" fill-rule="evenodd" clip-rule="evenodd" d="M607.273 482.421C569.393 520.308 508.006 520.301 470.119 482.421C432.282 444.584 432.282 383.189 470.168 345.31C508.006 307.472 569.393 307.472 607.23 345.31C645.11 383.189 645.11 444.584 607.273 482.421ZM626.713 325.848C578.091 277.226 499.301 277.226 450.679 325.848C402.064 374.463 402.021 453.303 450.636 501.925C494.888 546.163 564.247 550.152 613.032 513.83C617.797 510.278 622.385 506.295 626.762 501.925C631.133 497.548 635.115 492.959 638.661 488.194C674.983 439.403 670.958 370.093 626.713 325.848Z" fill="#E0E2EE"/>
<path id="Fill 25" fill-rule="evenodd" clip-rule="evenodd" d="M818.063 685.206L816.021 687.248C802.517 700.759 780.402 700.759 766.891 687.248L642.196 562.553L693.368 511.382L818.063 636.076C831.574 649.587 831.574 671.695 818.063 685.206Z" fill="url(#paint0_linear_1_112)"/>
<path id="Fill 27" fill-rule="evenodd" clip-rule="evenodd" d="M641.349 484.382L678.196 521.229L652.037 547.382L615.196 510.534C620.058 506.909 624.734 502.845 629.207 498.386C633.667 493.926 637.731 489.244 641.349 484.382Z" fill="#E0E2EE"/>
<path id="Fill 29" fill-rule="evenodd" clip-rule="evenodd" d="M816.196 634.542L765.35 685.382L756.196 676.221L807.036 625.382L816.196 634.542Z" fill="#EF545F"/>
<path id="Fill 31" fill-rule="evenodd" clip-rule="evenodd" d="M696.196 513.142L643.958 565.382L636.196 557.621L688.435 505.382L696.196 513.142Z" fill="url(#paint1_linear_1_112)"/>
<path id="Fill 33" fill-rule="evenodd" clip-rule="evenodd" d="M582.196 332.277L454.086 460.382C449.261 451.735 445.981 442.559 444.196 433.075L554.889 322.382C564.366 324.234 573.549 327.508 582.196 332.277Z" fill="white" fill-opacity="0.5"/>
<path id="Fill 35" fill-rule="evenodd" clip-rule="evenodd" d="M624.196 362.727L485.695 493.382C480.735 490.116 476.014 486.441 471.612 482.288C469.345 480.15 467.202 477.957 465.196 475.642L605.385 343.382C607.839 345.281 610.171 347.302 612.43 349.441C616.832 353.594 620.793 358.041 624.196 362.727Z" fill="white" fill-opacity="0.5"/>
</g>
</g>
</g>
<defs>
<linearGradient id="paint0_linear_1_112" x1="735.196" y1="418.382" x2="549.196" y2="604.382" gradientUnits="userSpaceOnUse">
<stop stop-color="#FF8960"/>
<stop offset="1" stop-color="#FF62A5"/>
</linearGradient>
<linearGradient id="paint1_linear_1_112" x1="666.196" y1="475.382" x2="606.196" y2="535.382" gradientUnits="userSpaceOnUse">
<stop stop-color="#FF404E"/>
<stop offset="1" stop-color="#FF62A5"/>
</linearGradient>
</defs>
</svg>
