<svg width="16" height="21" viewBox="0 0 16 21" fill="none" xmlns="http://www.w3.org/2000/svg">
<path d="M14.3177 15.9894L14.324 15.3466H14.3177V15.9894ZM15.0139 14.4696L14.4893 14.8411L14.4978 14.8532L14.5069 14.8649L15.0139 14.4696ZM13.4076 10.5979L14.0409 10.4868L14.0394 10.4793L13.4076 10.5979ZM12.0298 3.93728L12.5369 3.54224L12.5356 3.5406L12.0298 3.93728ZM7.92886 1.90073L7.93033 1.25787L7.92675 1.25788L7.92886 1.90073ZM3.82795 3.93728L3.32246 3.54011L3.3208 3.54224L3.82795 3.93728ZM2.45371 10.5979L1.82181 10.4795L1.82053 10.4868L2.45371 10.5979ZM0.847436 14.4696L1.35093 14.8693L1.36189 14.8555L1.37208 14.8411L0.847436 14.4696ZM1.54361 15.9894V15.3465L1.53141 15.3467L1.54361 15.9894ZM7.28963 1.90074C7.28963 2.25578 7.57745 2.5436 7.93249 2.5436C8.28753 2.5436 8.57534 2.25578 8.57534 1.90074H7.93249H7.28963ZM8.57534 0.643066C8.57534 0.288026 8.28753 0.000209272 7.93249 0.000209272C7.57745 0.000209272 7.28963 0.288026 7.28963 0.643066H7.93249H8.57534ZM7.92887 19.5002L7.93021 18.8573H7.92887L7.92887 19.5002ZM14.3177 15.9894L14.3115 16.6323C14.609 16.6351 14.8989 16.549 15.1469 16.3871L14.7956 15.8488L14.4442 15.3104C14.4057 15.3356 14.364 15.347 14.324 15.3466L14.3177 15.9894ZM14.7956 15.8488L15.1469 16.3871C15.3946 16.2255 15.589 15.9961 15.7113 15.7291L15.1268 15.4614L14.5424 15.1937C14.5186 15.2457 14.4832 15.285 14.4442 15.3104L14.7956 15.8488ZM15.1268 15.4614L15.7113 15.7291C15.8335 15.4623 15.8799 15.1665 15.8468 14.8756L15.2081 14.9483L14.5693 15.021C14.5762 15.0813 14.5663 15.1415 14.5424 15.1937L15.1268 15.4614ZM15.2081 14.9483L15.8468 14.8756C15.8136 14.5845 15.7018 14.3064 15.5209 14.0743L15.0139 14.4696L14.5069 14.8649C14.5396 14.9068 14.5625 14.9608 14.5693 15.021L15.2081 14.9483ZM15.0139 14.4696L15.5385 14.0981C14.7836 13.032 14.2706 11.7967 14.0408 10.4868L13.4076 10.5979L12.7744 10.709C13.0367 12.2036 13.6226 13.6173 14.4893 14.8411L15.0139 14.4696ZM13.4076 10.5979L14.0394 10.4793C13.9406 9.95276 13.8983 9.40891 13.869 8.83865C13.8404 8.28242 13.8236 7.6756 13.7724 7.09304C13.6683 5.90813 13.4133 4.66729 12.5369 3.54224L12.0298 3.93728L11.5226 4.33233C12.1764 5.17164 12.3964 6.12123 12.4917 7.2056C12.5402 7.75767 12.5542 8.3052 12.585 8.90462C12.6151 9.49002 12.6607 10.1031 12.7758 10.7165L13.4076 10.5979ZM12.0298 3.93728L12.5356 3.5406C11.9797 2.83165 11.2792 2.25781 10.4827 1.86229L10.1968 2.43806L9.91088 3.01383C10.5324 3.32246 11.0837 3.77258 11.5239 4.33397L12.0298 3.93728ZM10.1968 2.43806L10.4827 1.86229C9.68618 1.46671 8.81448 1.2599 7.93033 1.25788L7.92886 1.90073L7.9274 2.54359C8.61233 2.54515 9.28953 2.70526 9.91088 3.01383L10.1968 2.43806ZM7.92886 1.90073L7.92675 1.25788C7.04294 1.26079 6.17172 1.46798 5.37547 1.86341L5.6614 2.43917L5.94734 3.01494C6.56878 2.70633 7.24597 2.54584 7.93098 2.54359L7.92886 1.90073ZM5.6614 2.43917L5.37547 1.86341C4.57936 2.25876 3.87886 2.83197 3.32246 3.54012L3.82795 3.93728L4.33344 4.33445C4.77422 3.77346 5.32576 3.32362 5.94734 3.01494L5.6614 2.43917ZM3.82795 3.93728L3.3208 3.54224C2.44431 4.66746 2.19025 5.90754 2.08705 7.0921C2.03632 7.67433 2.01998 8.2812 1.99174 8.83743C1.96278 9.40777 1.92068 9.95206 1.82185 10.4795L2.45371 10.5979L3.08558 10.7163C3.20068 10.1019 3.24606 9.48831 3.2758 8.90263C3.30625 8.30286 3.31983 7.75562 3.36791 7.20369C3.46233 6.11993 3.68145 5.17148 4.33511 4.33233L3.82795 3.93728ZM2.45371 10.5979L1.82053 10.4868C1.59071 11.7967 1.07771 13.032 0.322792 14.0981L0.847436 14.4696L1.37208 14.8411C2.2387 13.6173 2.82468 12.2036 3.0869 10.709L2.45371 10.5979ZM0.847436 14.4696L0.343937 14.0699C0.159954 14.3017 0.0457191 14.5807 0.0111687 14.8732L0.649586 14.9486L1.288 15.024C1.29509 14.964 1.31819 14.9106 1.35093 14.8693L0.847436 14.4696ZM0.649586 14.9486L0.0111687 14.8732C-0.0233777 15.1656 0.0226887 15.4632 0.145552 15.7314L0.73001 15.4637L1.31447 15.196C1.29068 15.144 1.28091 15.084 1.288 15.024L0.649586 14.9486ZM0.73001 15.4637L0.145552 15.7314C0.268493 15.9998 0.464491 16.2301 0.714306 16.3915L1.06321 15.8516L1.41212 15.3117C1.37347 15.2867 1.33818 15.2477 1.31447 15.196L0.73001 15.4637ZM1.06321 15.8516L0.714306 16.3915C0.964468 16.5532 1.25666 16.6378 1.5558 16.6322L1.54361 15.9894L1.53141 15.3467C1.49171 15.3474 1.45042 15.3364 1.41212 15.3117L1.06321 15.8516ZM1.54361 15.9894V16.6323H14.3177V15.9894V15.3466H1.54361V15.9894ZM7.93249 1.90074H8.57534V0.643066H7.93249H7.28963V1.90074H7.93249ZM9.76358 17.5776L9.12073 17.5789C9.12105 17.7509 9.08892 17.9207 9.02682 18.0782L9.62489 18.314L10.223 18.5497C10.3449 18.2403 10.4071 17.9096 10.4064 17.5764L9.76358 17.5776ZM9.62489 18.314L9.02682 18.0782C8.96475 18.2357 8.87434 18.3769 8.76219 18.4944L9.22727 18.9382L9.69234 19.382C9.92111 19.1423 10.101 18.8592 10.223 18.5497L9.62489 18.314ZM9.22727 18.9382L8.76219 18.4944C8.65011 18.6118 8.51865 18.7032 8.37619 18.7649L8.63155 19.3549L8.8869 19.9448C9.19007 19.8136 9.4635 19.6218 9.69234 19.382L9.22727 18.9382ZM8.63155 19.3549L8.37619 18.7649C8.23379 18.8265 8.08233 18.8577 7.93021 18.8573L7.92887 19.5002L7.92754 20.1431C8.25756 20.1437 8.58367 20.0761 8.8869 19.9448L8.63155 19.3549ZM7.92887 19.5002L7.92887 18.8573C7.77693 18.8573 7.6257 18.826 7.48356 18.7642L7.2273 19.3538L6.97104 19.9434C7.27369 20.0749 7.59928 20.1431 7.92887 20.1431L7.92887 19.5002ZM7.2273 19.3538L7.48356 18.7642C7.34135 18.7024 7.21014 18.6109 7.09831 18.4935L6.6328 18.9369L6.16729 19.3802C6.39561 19.6199 6.66847 19.8118 6.97104 19.9434L7.2273 19.3538ZM6.6328 18.9369L7.09831 18.4935C6.98642 18.376 6.89624 18.235 6.83431 18.0776L6.23613 18.3131L5.63794 18.5485C5.75963 18.8577 5.93902 19.1405 6.16729 19.3802L6.6328 18.9369ZM6.23613 18.3131L6.83431 18.0776C6.77237 17.9203 6.74032 17.7507 6.74064 17.5789L6.09779 17.5776L5.45493 17.5764C5.4543 17.9092 5.51627 18.2394 5.63794 18.5485L6.23613 18.3131Z" fill="#031314"/>
</svg>
