<svg width="24" height="24" viewBox="0 0 24 24" fill="none" xmlns="http://www.w3.org/2000/svg">
<path d="M12.7873 9.32145C12.1876 9.26691 11.5842 9.38439 11.0598 9.65782C10.5354 9.93125 10.1156 10.3473 9.85791 10.8489C9.60019 11.3505 9.51713 11.9132 9.62011 12.46C9.7231 13.0068 10.0071 13.5108 10.4332 13.9032C10.8593 14.2956 11.4067 14.5572 12.0005 14.652C12.5942 14.7468 13.2053 14.6704 13.75 14.433C14.2948 14.1957 14.7465 13.8091 15.0434 13.3262C15.3404 12.8433 15.4679 12.2877 15.4087 11.7355C15.3412 11.1164 15.0433 10.5379 14.5656 10.0979C14.0878 9.65794 13.4595 9.38363 12.7873 9.32145V9.32145ZM19.825 12C19.8231 12.2926 19.7998 12.5847 19.7551 12.8743L21.8199 14.3657C21.9098 14.4343 21.9704 14.53 21.9908 14.6359C22.0113 14.7418 21.9904 14.8509 21.9318 14.9439L19.9785 18.0561C19.9191 18.1482 19.8264 18.2181 19.7166 18.2534C19.6068 18.2887 19.487 18.2872 19.3784 18.2491L17.3278 17.4887C17.2147 17.4473 17.0922 17.4323 16.9713 17.4451C16.8504 17.458 16.7348 17.4983 16.635 17.5623C16.322 17.7608 15.9931 17.9371 15.6512 18.0897C15.5437 18.1378 15.4508 18.2096 15.3805 18.2986C15.3102 18.3877 15.2649 18.4913 15.2484 18.6003L14.9411 20.6143C14.9209 20.7207 14.8612 20.8173 14.7722 20.8877C14.6833 20.958 14.5705 20.9977 14.4533 21H10.5467C10.4314 20.9982 10.3202 20.9602 10.2315 20.8924C10.1427 20.8246 10.0817 20.731 10.0585 20.627L9.75158 18.6158C9.73435 18.5056 9.68781 18.401 9.6161 18.3114C9.54439 18.2217 9.44974 18.1498 9.34055 18.1019C8.99904 17.9501 8.6713 17.7733 8.36048 17.5733C8.26096 17.5095 8.14578 17.4696 8.02531 17.457C7.90484 17.4444 7.78288 17.4597 7.6704 17.5014L5.62028 18.2613C5.51163 18.2994 5.39187 18.301 5.2821 18.2657C5.17232 18.2305 5.07956 18.1607 5.02017 18.0687L3.06687 14.9565C3.00815 14.8636 2.98716 14.7544 3.00765 14.6485C3.02814 14.5426 3.08878 14.4469 3.17876 14.3783L4.92381 13.1166C5.01941 13.0467 5.09455 12.9559 5.1424 12.8525C5.19026 12.7491 5.20931 12.6363 5.19783 12.5244C5.18139 12.3491 5.17134 12.1741 5.17134 11.9987C5.17134 11.8234 5.18093 11.6509 5.19783 11.4793C5.20805 11.3681 5.18807 11.2563 5.13968 11.154C5.09128 11.0516 5.016 10.962 4.92061 10.8931L3.17648 9.6314C3.08795 9.56247 3.02859 9.46705 3.0088 9.36185C2.98901 9.25666 3.01006 9.14841 3.06824 9.05607L5.02154 5.94393C5.08086 5.85182 5.17359 5.78195 5.28337 5.74664C5.39315 5.71132 5.51295 5.71283 5.62165 5.75089L7.67223 6.51126C7.78531 6.55272 7.90779 6.5677 8.02871 6.55486C8.14962 6.54201 8.26518 6.50175 8.36504 6.43766C8.678 6.23921 9.00685 6.06291 9.34877 5.91028C9.45627 5.86217 9.54925 5.79042 9.6195 5.70138C9.68975 5.61234 9.73511 5.50873 9.75158 5.39972L10.0589 3.38565C10.0791 3.27929 10.1388 3.18268 10.2278 3.11233C10.3167 3.04199 10.4295 3.00229 10.5467 3H14.4533C14.5686 3.00184 14.6798 3.03979 14.7685 3.10759C14.8573 3.1754 14.9183 3.26902 14.9415 3.37304L15.2484 5.38416C15.2657 5.49437 15.3122 5.59896 15.3839 5.68862C15.4556 5.77828 15.5503 5.85023 15.6594 5.89808C16.001 6.04989 16.3287 6.22667 16.6395 6.42673C16.739 6.49049 16.8542 6.53045 16.9747 6.543C17.0952 6.55556 17.2171 6.54031 17.3296 6.49865L19.3797 5.73869C19.4884 5.70059 19.6081 5.69902 19.7179 5.73426C19.8277 5.7695 19.9204 5.83928 19.9798 5.93131L21.9331 9.04346C21.9919 9.13644 22.0128 9.24559 21.9924 9.35149C21.9719 9.45739 21.9112 9.55315 21.8212 9.62173L20.0762 10.8834C19.9802 10.9531 19.9046 11.0437 19.8563 11.1472C19.8081 11.2506 19.7887 11.3635 19.7999 11.4756C19.815 11.6497 19.825 11.8246 19.825 12Z" stroke="white" stroke-width="2" stroke-linecap="round" stroke-linejoin="round"/>
</svg>
